<svg xmlns="http://www.w3.org/2000/svg" viewBox="0 0 500 500"><g id="freepik--Plants--inject-406"><path d="M387,431.07c-3.36-4.34-7.2-9.13-7-14.91.21-5.33,2-11.23,6.9-14.07,1.39-.81,2.41-1.09,2.86.71.69,2.74-.48,6.06-1.07,8.72a55.35,55.35,0,0,0-1.41,10.41c-.08,2.46.1,4.93.08,7.4,0,.31,0,.62,0,.93,0,.11,0,.23,0,.35l.09.13a.26.26,0,0,1,0,.25.19.19,0,0,1,0,.09A.29.29,0,0,1,387,431.07Z" style="fill:#37474f"></path><path d="M387.48,431.08c-2.76-4-6-8.07-5.58-13.12a22.43,22.43,0,0,1,1.81-6.82c.41-1,1.63-3.93,2.91-4,2.32-.12-.78,9.2-.93,10.29a23.73,23.73,0,0,0,1.73,11.9c0,.31,0,.62,0,.93a26.33,26.33,0,0,1-2.18-8.3c-.34-4,1-7.29,1.72-11.12.16-.83.81-3.44-.62-3.23-.93.14-2.14,3-2.4,3.61a22.38,22.38,0,0,0-1.73,6.47c-.48,5.09,2.65,9.24,5.33,13.3A.19.19,0,0,1,387.48,431.08Z" style="fill:#fff"></path><path d="M386.07,435.49l-.59.27h0a.13.13,0,0,1-.15,0,.23.23,0,0,1-.08-.3.19.19,0,0,1,.11-.08l.08,0,.19-.06v0l0-.05c2.38-2.91,5.23-5.43,7.58-8.38s4.3-5.8,6.77-8.44c1.55-1.67,9.74-9.48,11.49-4.65.78,2.14-.92,5.2-2,7a23.43,23.43,0,0,1-5.48,6.18C398.71,431.19,392.2,432.79,386.07,435.49Z" style="fill:#37474f"></path><path d="M398.33,428.62a26.57,26.57,0,0,0,5.71-5.08c.57-.68,3.29-4,2.39-5-.58-.69-2.11.22-2.63.5-2.21,1.2-3.81,3.35-5.49,5.16a103.17,103.17,0,0,1-11.1,10.22c-.28.15-.57.29-.85.45s-.47.25-.7.38l-.24.13-.19.11a.24.24,0,0,0,.08.3l.55-.29-.4.3h0l.48-.22.11-.05c.23-.16.45-.33.67-.5A112.3,112.3,0,0,0,398.33,428.62Zm-10.17,5.26q3.46-2.75,6.64-5.81c1.71-1.65,3.34-3.36,4.94-5.12a24.57,24.57,0,0,1,2.85-2.83c.8-.63,4-2.72,3.2.23-.57,2.14-3.31,4.53-4.9,5.88a37.68,37.68,0,0,1-5.73,4C392.88,431.51,390.51,432.68,388.16,433.88Z" style="fill:#fff"></path><path d="M375.56,446.7h0l-.14-.15c-2.73-4.23-7-9.39-6.76-14.72.19-3.94,2.36-9.23,6.27-10.85,4.41-1.81,3.55,6.53,3.43,8.66a153.08,153.08,0,0,1-2.53,17s0,.07,0,.11h0C375.75,446.84,375.65,446.78,375.56,446.7Z" style="fill:#37474f"></path><path d="M375.78,446.76c0-.34,0-.68-.06-1-.25-3.89-.32-7.81-.2-11.7,0-1,.81-8.52-1.15-8.16-1.18.22-1.89,3-2.15,3.95a15.34,15.34,0,0,0-.53,5.09c.26,3.93,2.26,7.5,3.66,11.16a4.5,4.5,0,0,1,.2.51.45.45,0,0,0,0,.12h0C375.65,446.78,375.74,446.84,375.78,446.76ZM372.3,437a15.57,15.57,0,0,1-.15-5.23c.15-1.16.86-5.33,2.32-5.4.78-.05.7.44.85,1.32a9.88,9.88,0,0,1,.12,1.22c.05,1,0,2-.07,3-.1,1.77-.15,3.53-.15,5.3,0,2.88.08,5.77.28,8.65C374.49,442.9,372.92,440.1,372.3,437Z" style="fill:#fff"></path><path d="M389.32,448.11a29.73,29.73,0,0,1-17.23,1.79.16.16,0,0,1-.1,0,.21.21,0,0,1-.08-.26.22.22,0,0,1,.25-.15l.36.06c6-3.31,12.08-6.54,18.05-10,1.41-.8,10.48-5.78,11-2.24.3,2.19-3,4.75-4.48,6A30.29,30.29,0,0,1,389.32,448.11Z" style="fill:#37474f"></path><path d="M395.69,441.28c.36-.47.67-1.06,0-1.34-1.34-.55-5.54,1.87-6.75,2.49-5,2.53-10,4.57-15.18,6.64l-1.31.53h-.51a.23.23,0,0,0,.08.26l.13,0h.7a35.19,35.19,0,0,0,10.77-1.62,33.34,33.34,0,0,0,6.34-2.76C391.78,444.39,394.38,443,395.69,441.28Zm-22.58,8.3h-.34l.55-.18a99.28,99.28,0,0,0,12-4.83c2-1,3.86-2,5.85-2.93.84-.38,3.2-1.53,4-1.16s-.05.94-.47,1.34-.93.73-1.24,1A34.55,34.55,0,0,1,373.11,449.58Z" style="fill:#fff"></path><path d="M360.62,459.18l-.59-.82,2.12-1.59q4.23-3.27,8.41-6.64c1.58-1.29,3.13-2.59,4.63-3.93l.16-.13.37-.34.39-.36a43.25,43.25,0,0,0,8.63-10.46c.75-1.33,1.44-2.69,2.11-4.07l.18-.4a.28.28,0,0,0,.05-.11c.07-.13.13-.27.2-.41l.14-.31c2-4.28,3.58-8.72,5.3-13.06.49-1.25,1-2.49,1.5-3.73a.73.73,0,0,1,.09-.22,2.33,2.33,0,0,1,.11-.28c2.2-5.49,4.48-11,6.54-16.5.07-.21.37-.06.3.14-1.34,3.7-2.6,7.44-3.88,11.18-.17.49-.35,1-.51,1.49l-1,2.94c-.69,2-1.38,3.91-2.12,5.86A143,143,0,0,1,387,433.68c-.2.38-.41.76-.63,1.15s-.26.48-.4.71-.31.55-.47.82a46.46,46.46,0,0,1-10.87,12l-.89.72-.41.34-.21.17-.29.23h0l-.22.16c-.25.21-.51.4-.77.61q-4.21,3.3-8.5,6.5Z" style="fill:#37474f"></path><path d="M395.58,397.08c1.4-4.4,5.53-11.72,11.12-10.74a4.31,4.31,0,0,1,3.7,4.41c0,2.65-1.82,5.14-3.38,7.12-4.17,5.28-8.8,10.13-12.6,15.72a5.16,5.16,0,0,1-.4.6c-.08.12-.25,0-.17-.13s.24-.37.37-.55C394.24,408.1,393.92,402.28,395.58,397.08Z" style="fill:#37474f"></path><path d="M394.43,413.63a.61.61,0,0,0,.05-.12,45,45,0,0,1,2.39-4.88,90,90,0,0,1,6.29-9.4c.87-1.17,5.23-6.74,1.61-7.13-1.52-.17-3.07,1.13-4.11,2.08a17.1,17.1,0,0,0-3.94,5.43c-1.91,4.07-2.35,8.55-2.41,13,0,.2,0,.4,0,.6l-.08.19a.43.43,0,0,0-.05.12.11.11,0,0,0,0,.08.15.15,0,0,0,.2.11A.1.1,0,0,0,394.43,413.63Zm0-1.31a36.38,36.38,0,0,1,1.78-10.82,19.05,19.05,0,0,1,2.7-5.05,15.45,15.45,0,0,1,1.71-1.9,11.49,11.49,0,0,1,1.48-1.21c1.16-.78,2.74-1.2,3.34-.61s.46,1.34-.1,2.58a11.53,11.53,0,0,1-.64,1.2c-.59,1-1.27,1.9-1.95,2.81-1.12,1.51-2.24,3-3.3,4.59-.72,1-1.41,2.13-2.06,3.23a47.56,47.56,0,0,0-3,5.86C394.39,412.78,394.4,412.55,394.42,412.32Z" style="fill:#fff"></path><path d="M101.54,424.06c2.72,2.5,5.27,5.19,7.78,7.89,1.42,1.53,2.83,3.09,4.26,4.62,1.58,1.69,3.06,3.58,5.28,4.41h0a1.38,1.38,0,0,1,.27.16.09.09,0,0,1,0,.05.27.27,0,0,1-.34.33l-.15-.05h-.06a9.25,9.25,0,0,1-2-.46,48,48,0,0,1-5.37-1.6A45.87,45.87,0,0,1,101,434.27a39.06,39.06,0,0,1-7.67-6.79c-1.78-2.08-4.47-5.15-5-8-.45-2.53,2.82-2,4.34-1.59C96.12,419,99,421.69,101.54,424.06Z" style="fill:#37474f"></path><path d="M93.3,422.21c-.77,1.08,2.17,4.39,3.41,5.86a37.44,37.44,0,0,0,6.66,6.16,48.15,48.15,0,0,0,14.61,7l.63.19h.06l.14.05a.28.28,0,0,0,.35-.34c-.42-.19-.82-.39-1.22-.62s-.71-.39-1-.6c-3.78-2.25-7.07-5.38-10.29-8.36C102.82,428.09,94.34,420.77,93.3,422.21Zm24.14,18.44c.53.29,1.06.56,1.6.8l-1.27-.41a53.73,53.73,0,0,1-12.94-6.15,38.39,38.39,0,0,1-6.21-5.17,35.33,35.33,0,0,1-2.83-3.29c-.36-.49-2.73-3.38-2.11-3.95.45-.4,3.17,1.38,3.23,1.42.55.35,1.08.73,1.61,1.12,1.08.79,2.13,1.65,3.15,2.52,2.21,1.9,4.33,3.92,6.48,5.89A50.66,50.66,0,0,0,117.44,440.65Z" style="fill:#fff"></path><path d="M122,412.82c2.47,4.79,3,10.28,3.12,15.58,0,2.84,0,5.68-.08,8.52a37.4,37.4,0,0,0,.26,7.6c0,.11,0,.22.07.33a9.6,9.6,0,0,0,.68,2,.14.14,0,0,1,0,.14,1.27,1.27,0,0,1,.13.19s0,.1-.07.06-.12-.11-.18-.16h0a.15.15,0,0,1-.15-.09l0-.08-.17-.17c-4.15-3.82-6.48-10.29-8.06-15.49s-2.3-10.74-.93-16c.35-1.34.94-4.51,2.55-5S121.5,411.81,122,412.82Z" style="fill:#37474f"></path><path d="M119.84,415.92c-1.63.27-1.29,4.74-1.24,5.83a58,58,0,0,0,1.49,9.8,51.23,51.23,0,0,0,5.4,15h0a1.8,1.8,0,0,1,0,.19l.18.17,0,.08a.14.14,0,0,0,.16.09c0-.09-.05-.17-.06-.25-.18-.65-.34-1.32-.48-2,0-.11,0-.22-.07-.33a111.92,111.92,0,0,1-1.45-14.09,52.44,52.44,0,0,0-1.48-9.75C122.18,419.87,121.2,415.69,119.84,415.92Zm1.46,2.37c2.22,5.15,2.16,11.27,2.53,16.77a58.37,58.37,0,0,0,1.54,11,54.29,54.29,0,0,1-4.72-13.69,72.91,72.91,0,0,1-1.48-8.15,30.36,30.36,0,0,1-.24-4.48,11.55,11.55,0,0,1,.34-2.66C119.82,415.51,120.91,417.4,121.3,418.29Z" style="fill:#fff"></path><path d="M134.89,454.14a.28.28,0,0,1,0,.28H135a.1.1,0,0,1,.09.08.09.09,0,0,1-.07.1c-6.4,1-13.5,1.3-19.79-.42a25.19,25.19,0,0,1-7.5-3.36c-1.56-1.06-4.7-3.18-4.88-5.29-.36-4.24,10.88.16,12.57.83,3.09,1.22,6.06,2.69,9.12,4,3.35,1.39,6.79,2.54,10.23,3.69A.24.24,0,0,1,134.89,454.14Z" style="fill:#37474f"></path><path d="M134.89,454.14l-1-.11a54.93,54.93,0,0,1-16.19-4.39,49.14,49.14,0,0,0-7.91-3c-.68-.16-3.18-1-2.78.65.21.83,4.32,3.21,5.44,3.74a34.7,34.7,0,0,0,8.07,2.53,56.86,56.86,0,0,0,14.15,1l.41,0a.08.08,0,0,0-.08-.09h-.11A.29.29,0,0,0,134.89,454.14Zm-12-.5a39.55,39.55,0,0,1-8.16-2,29.79,29.79,0,0,1-3.07-1.35A18.8,18.8,0,0,1,109.4,449c-1.73-1.26-2.08-1.72-1.94-2.06s.46-.32,1.87-.09a15.07,15.07,0,0,1,2.64.77c1.22.47,2.42,1,3.62,1.49,2.39,1,4.78,2.1,7.24,2.95a42.13,42.13,0,0,0,10.94,2.28A64.15,64.15,0,0,1,122.88,453.64Z" style="fill:#fff"></path><path d="M134.23,435.77a16.06,16.06,0,0,1,3.3,6c1.46,4.36,2,9,3.12,13.39.17.67.36,1.33.56,2,0,.07.46.8.41.76l-.57-.59h0c-1.73-1.82-6.88-7.4-8.85-11.18a32.75,32.75,0,0,1-3-7.41c-.28-1.23-.8-4,.42-5S133.4,434.9,134.23,435.77Z" style="fill:#37474f"></path><path d="M131.61,436.85c-1.72.71,1.82,8.24,2.27,9.22a45.87,45.87,0,0,0,6.31,10.21c.27.36.56.7.86,1.05s.55.58.57.59-.38-.69-.41-.76-.07-.23-.1-.34c-.17-.54-.32-1.09-.46-1.63-1.12-3-2.19-6-3.38-8.92a43,43,0,0,0-3-6.18C134,439.65,132.35,436.53,131.61,436.85Zm1.4,1.55c3.83,5.5,5.21,12.11,7.74,18.21,0,.1.08.2.13.3-.11-.14-.22-.27-.32-.41a51.61,51.61,0,0,1-5.34-8.37,50.77,50.77,0,0,1-2.42-5.56,24.8,24.8,0,0,1-1.06-3.15c-.11-.47-.34-1.77,0-1.94S132.75,438,133,438.4Z" style="fill:#fff"></path><path d="M101.05,392.61c6,10.06,3,23,8.29,33.33l0,.06c.16.31.34.62.52.94a.22.22,0,0,1-.17.32.17.17,0,0,1-.15-.09,1.71,1.71,0,0,1-.13-.23c-4.78-4.43-8.65-10.47-11.49-16.3-2.47-5.07-4.1-10.76-3.26-16.43.21-1.4.52-4.19,2.21-4.71S100.31,391.37,101.05,392.61Z" style="fill:#37474f"></path><path d="M99,396.31c-.7.22-.79,1.27-.87,1.84a18.19,18.19,0,0,0-.1,4.3,30,30,0,0,0,2.19,8.53,61.14,61.14,0,0,0,7.13,13.3,34,34,0,0,0,2.13,2.66l.27.32a.23.23,0,0,0,.17-.33c-.18-.29-.34-.59-.5-.9a.56.56,0,0,1,0-.08,36.53,36.53,0,0,1-3-6.29,86.86,86.86,0,0,1-2.68-10.53C103.3,407.74,101.4,395.51,99,396.31Zm1.59,2.05c1.23,2.63,1.63,5.62,2.25,8.44s1.24,5.69,1.92,8.52a40.66,40.66,0,0,0,2.17,6.59,31.47,31.47,0,0,0,2.72,5.09,43.12,43.12,0,0,1-3.31-4.62.09.09,0,0,1,0-.06,78.88,78.88,0,0,1-4.72-8.95l-.06-.12a37.29,37.29,0,0,1-2.87-8.41,21.16,21.16,0,0,1-.4-4.83c.08-1.83.34-3.3,1-3.33C99.62,396.67,100.21,397.58,100.56,398.36Z" style="fill:#fff"></path><path d="M101.8,413.24c1.64,2.91,3.36,5.79,5.1,8.67l2.44,4a.56.56,0,0,0,0,.08l.88,1.46c2.66,4.39,5.29,9,8.64,12.93a43.76,43.76,0,0,0,5.92,5.61l.66.53h0l.37.28a1.49,1.49,0,0,0,.2.15c1.87,1.45,3.82,2.8,5.71,4.1,2.65,1.82,5.4,3.45,8.16,5.05a2,2,0,0,0,.25.14l.37.22.19.11.36.21c.89.51,1.77,1,2.66,1.56l-.57.8a63.7,63.7,0,0,1-8.39-4.55l-.17-.1-.78-.5c-.33-.2-.64-.41-1-.62l-2.27-1.53a67.76,67.76,0,0,1-12.25-10.14l-.28-.33a.53.53,0,0,1-.12-.14,1.51,1.51,0,0,1-.21-.23l-.33-.39c-.19-.23-.37-.47-.55-.7l-.16-.21a102.19,102.19,0,0,1-7.48-12c-.42-.74-.84-1.48-1.25-2.22l-.68-1.24-1-1.9a.09.09,0,0,1,0-.06c-1.59-3-3.12-6-4.72-8.95C101.49,413.23,101.72,413.1,101.8,413.24Z" style="fill:#37474f"></path></g><g id="freepik--Splash--inject-406"><path d="M395.72,459.18H111.15s23.61-9.09,29.59-18.4a8.43,8.43,0,0,0,1.11-3.2h0c1-4.95,4.93-18.58,11.63-21.74s19.59-7.43,24.83-12.47c3.43-3.3,4.66-4.75,7.32-6.49a65,65,0,0,1,6-3.37c7.65-3.94,24.3-7.34,25.39-14.25.33-2.11-9-3.55-9.09-10.64s7.6-7.88,9.45-6.05,1,5.82-.16,7-2.06,4.2.19,5.22,8.06-5.07,13.88-4.66,3.49,6.32,5.49,9.15,16.46,3.64,20.86,5.23,9.06,10.48,23.61,10.81,31.43-5.57,33.51-8.23,1.22-5.19-.59-6.32c-2.45-1.54-5.17-8,1-9.19s7.69,5.45,6.28,8.11a13.79,13.79,0,0,0-1.58,8.07c.42,2,2,5.48,2.08,9.22s2.41,5.41,6.15,5.16,10.14-9.15,13.8-12.31,9.23-1.91,11.72-3.9.59-9.15,5.82-14,14.55-1.41,13.64,1.75-9.9,2.82-11.47,4.57-2.08,6.15-4.08,8.06-8,5.74-8.73,8,3.33,2.25,6.57.92,7.1-7.66,9.06-9.23a12.38,12.38,0,0,0,2.3-3.24c.6-1,1.2-2.13,1.83-3a4.12,4.12,0,0,1,2-1.74c2.33-.58,3.16,2.12,5.7.37s.29-6.81,3.24-10.55,12.72-12.18,15.21-10.23-1.74,4.82-4.82,6.65-4.74,3.2-4.9,6.36a12.57,12.57,0,0,0,.57,5.43,9.82,9.82,0,0,0,.68,1.44c1.16,2.07-5.56,3.81-7.56,7.78a7.3,7.3,0,0,0,.13,3.15h0a21.68,21.68,0,0,1-1.3,4.8c-2.5,5.41-17.09,22.95-15.51,36.17S387.57,459.18,395.72,459.18Z" style="fill:#6EF4FE;opacity:0.4"></path><path d="M149,425.78c3.24-5.68,9-9.33,14.91-11.85,2.95-1.3,6.06-2.29,9-3.5a29.48,29.48,0,0,0,7.69-5.56c2.64-2.47,4.93-5.26,7.4-7.93,2.21-1.87,5.09-2.68,7.74-3.68,6.09-2.12,12.38-3.63,18.27-6.09a14.24,14.24,0,0,0,4-2.36c2.35-2.18,4.22-4.8,6.38-7.19,1.63-1.74,3.69-3.7,6.28-3.65a2.68,2.68,0,0,1,2,1.56c2.59,6.75,1.49,7.71,9.5,8.41,4.79.54,9.74.2,14.4,1.63a16.79,16.79,0,0,1,4.06,2.67c10.08,8.67,11.85,11.29,25.58,8.5,7.83-1.48,15.68-3.69,23.34-5.9,6.92-2.16,9.53-2.72,10.25,5.56a15,15,0,0,0,1.16,4.49,6,6,0,0,0,7.57,2.79c5.12-2.41,7.93-7.94,12.88-10.74,1.21-.56,3-.9,4,.33.73,1.08.56,2.46,1.21,3.44,4.91,5.64,11.41-2,14.66-6a57.8,57.8,0,0,1,4-4.62,5.9,5.9,0,0,0,2.35-2.49c1.19-2.81,2.33-4.46,5.75-3.61,1.43.41,3.08,1.34,3.95-.28,1.4-3.68.71-8.26,3.39-11.46a29.4,29.4,0,0,1,9-8,4.13,4.13,0,0,1,2.36-.5v.1a4.1,4.1,0,0,0-2.28.54,23.21,23.21,0,0,0-5.6,4.47c-2.16,2.33-4.48,4.75-4.93,8-.55,2.36-.46,4.85-1.38,7.16-.85,1.94-3.19,1.15-4.63.64-4.95-1.29-3.8,3.89-7,5.71-3.91,3.73-6.46,8.74-11.1,11.85-2.67,2.07-7.28,2.2-9.32-.91-.69-1.07-.6-2.38-1.16-3.35-3-2.35-9.05,6.14-11.53,8a16,16,0,0,1-4.11,2.81,7.06,7.06,0,0,1-8.89-3.31c-1.47-3-1.06-6.46-2.12-9.41-1.35-3.11-5.69-.66-8.13-.21-4.51,1.27-9.47,2.62-14,3.68-7.05,1.47-14.28,3.6-21.55,2.72-5.55-1.54-9.6-6-13.86-9.58a13,13,0,0,0-8.61-3.57c-3.2-.34-6.41-.41-9.63-.68-2.34-.33-5.11-.21-7-1.91-1.67-1.84-1.82-4.55-2.92-6.61-.75-1.64-2.43-1.46-3.81-.72-4.2,2.38-6.36,7.13-9.91,10.32-3.81,3.18-8.81,4.19-13.35,5.8-5.28,1.8-10.85,3-15.74,5.69a6.81,6.81,0,0,0-1.7,1.53c-4.3,4.77-8.62,9.9-14.59,12.64-9,3.24-18.77,6.42-24.16,14.75Z" style="fill:#6EF4FE;opacity:0.7000000000000001"></path><path d="M145.19,430.44c1.05-4.25,3.53-7.83,5.94-11.41,1.19-1.87,3.37-2.82,5.31-3.77a37.86,37.86,0,0,1,6.07-2.19l0,.09c-1.85,1.12-3.75,2.1-5.65,3.06L154,417.59a10.54,10.54,0,0,0-4.37,4.33c-1,1.9-1.65,3.93-2.71,5.79a24.49,24.49,0,0,1-1.65,2.78l-.09-.05Z" style="fill:#fff"></path><path d="M213.79,375.55a8.19,8.19,0,0,1-4.09-5.05c-.51-1.39-1-3-.24-4.45a5,5,0,0,1,5.74-2.93v.1c-3.29.56-6.63,3.7-5.19,7.16,1.12,1.84,2.66,3.23,3.85,5.1l-.06.07Z" style="fill:#fff"></path><path d="M220.78,374.89a8.8,8.8,0,0,1,4.22-2.21c1.49-.65,2.79-1.69,4.46-1.93a4.52,4.52,0,0,1,3.25.56l0,.09a12.8,12.8,0,0,0-3,.4,24.44,24.44,0,0,0-4.52,1.18,9.1,9.1,0,0,1-4.32,2l0-.09Z" style="fill:#fff"></path><path d="M262.78,389c3,1.52,5.64,3.48,8.5,5.18,5.05,2.4,10.84,1.3,16.28,1.71v.1c-5.47,1.36-11.4,1.2-16.43-1.51a22.75,22.75,0,0,1-8.42-5.4l.06-.08Z" style="fill:#fff"></path><path d="M315.26,372.36a5,5,0,0,0-2.21,5.19c.49,1.38,2,1.93,3,2.91a4.51,4.51,0,0,1,1.4,1.92,4.8,4.8,0,0,1-1.3,4.3l-.08-.05a6.9,6.9,0,0,0,.37-3.93c-.44-1.2-1.71-2.1-2.49-3.17-1.42-1.6-2.58-4.44-.76-6.24a3.33,3.33,0,0,1,2-1l0,.09Z" style="fill:#fff"></path><path d="M342.19,390.82c2.84-2.88,7.22-2.92,10.9-3.81,2.5-.53,2.47-3.56,3-5.61.55-3.09,1.28-6.44,3.76-8.65a10.09,10.09,0,0,1,9-2.05c-7.54.09-10.56,4-12.27,10.82-.76,2.08-.85,5.17-3.32,6-3.6,1.4-7.8,1.43-11.08,3.29Z" style="fill:#fff"></path><path d="M378.82,370.85c.93-3.32,3.9-5.43,6.14-7.85,2.34-2.17,5.24-4.95,8.67-4.64v.05c-1.68,0-3.11,1-4.49,1.84a32.06,32.06,0,0,0-10.32,10.6Z" style="fill:#fff"></path><path d="M331,368.6a1.1,1.1,0,0,0-.54-1.27,1.17,1.17,0,0,0-.31-.12,1.27,1.27,0,0,0-.34,0,1.47,1.47,0,0,0-.46.11.88.88,0,0,0-.25.18,1,1,0,0,0-.26.4.64.64,0,0,0-.05.33,1,1,0,0,0,.3.72,1.42,1.42,0,0,0,.54.36,1.13,1.13,0,0,0,.63,0,.89.89,0,0,0,.61-.54h0A1.67,1.67,0,0,0,331,368.6Z" style="fill:#6EF4FE;opacity:0.4"></path><path d="M297.78,359.2a3.31,3.31,0,0,0,.64-2,2.67,2.67,0,0,0-.15-1,3.77,3.77,0,0,0-.43-.85,0,0,0,0,0,0,0,3,3,0,0,0-1.35-2.16,2.45,2.45,0,0,0-2.39-.05,2.83,2.83,0,0,0-1.37,2,3.82,3.82,0,0,0,.5,2.7,6.78,6.78,0,0,0,.79,1.08,4.85,4.85,0,0,0,.89.92,2,2,0,0,0,1.62.31A2.55,2.55,0,0,0,297.78,359.2Z" style="fill:#6EF4FE;opacity:0.4"></path><path d="M345.12,374.78a.5.5,0,0,0,.05-.21.41.41,0,0,0,0-.21v0s0-.09,0-.13,0-.09,0-.14a1.1,1.1,0,0,0-.2-.35,1.14,1.14,0,0,0-.22-.22l-.05,0s0,0,0,0a1,1,0,0,0-.16-.1,1.32,1.32,0,0,0-.62-.12.09.09,0,0,0-.08.08s0,.06,0,.09a1.69,1.69,0,0,0-.24.08,1.62,1.62,0,0,0-.62.75,1.52,1.52,0,0,0-.08.79.88.88,0,0,0,.61.75,1.34,1.34,0,0,0,.84,0,1.81,1.81,0,0,0,.37-.18,1.94,1.94,0,0,0,.36-.34A1.73,1.73,0,0,0,345.12,374.78Z" style="fill:#6EF4FE;opacity:0.4"></path><path d="M307.65,365.6a1.7,1.7,0,0,0,1.3-2,3.17,3.17,0,0,0-1.25-1.76c-.85-.65-1.77-1.21-2.67-1.79a6.11,6.11,0,0,0-2.48-1.27,1.66,1.66,0,0,0-2,1.7,3.22,3.22,0,0,0,1.5,2.39,4.24,4.24,0,0,0,2.21.75l.92.92A3.14,3.14,0,0,0,307.65,365.6Z" style="fill:#6EF4FE;opacity:0.4"></path><path d="M338.87,375.88a3.19,3.19,0,0,0-.89-3.51,4.19,4.19,0,0,0-4.16-.72,5.8,5.8,0,0,0-3.92,4.94,4.61,4.61,0,0,0,.91,3.24,3.14,3.14,0,0,0,3.26,1.26,4.2,4.2,0,0,0,2.29-2,13.37,13.37,0,0,1,.78-1.18c.28-.37.8-.76,1.15-1.18a2.86,2.86,0,0,0,.27-.52A.77.77,0,0,0,338.87,375.88Z" style="fill:#6EF4FE;opacity:0.4"></path><path d="M371,367.49a3.19,3.19,0,0,0,3.6-.27,4.23,4.23,0,0,0,1.42-4,5.82,5.82,0,0,0-4.2-4.71,4.63,4.63,0,0,0-3.35.35,3.15,3.15,0,0,0-1.8,3,4.28,4.28,0,0,0,1.57,2.6,11.58,11.58,0,0,1,1,1c.32.34.62.92,1,1.33a2.71,2.71,0,0,0,.46.36A.72.72,0,0,0,371,367.49Z" style="fill:#6EF4FE;opacity:0.4"></path><path d="M327.64,377.51a1.14,1.14,0,0,0-.07-.75.54.54,0,0,0-.21-.26,2.74,2.74,0,0,0-.15-.58,1.67,1.67,0,0,0-.23-.44.7.7,0,0,0-.49-.29,1.76,1.76,0,0,0-1.34.27,2.17,2.17,0,0,0-.81,1,1.77,1.77,0,0,0,.06,1.28,1.72,1.72,0,0,0,1.7.95,1.78,1.78,0,0,0,1-.39A1.3,1.3,0,0,0,327.64,377.51Z" style="fill:#6EF4FE;opacity:0.4"></path><path d="M232.6,346.86a3.07,3.07,0,0,0-1.68,1,.27.27,0,0,1-.07.08,2.86,2.86,0,0,0-1,1,2.44,2.44,0,0,0-.24,2c.15.41.47.84.95.82s.84,0,1.25-.07a4.35,4.35,0,0,0,2.36-.86,2.81,2.81,0,0,0,1-1.83,2,2,0,0,0-.77-1.83A2.34,2.34,0,0,0,232.6,346.86Z" style="fill:#6EF4FE;opacity:0.4"></path><path d="M234.58,356.79a6.55,6.55,0,0,0-1.77.68,24.59,24.59,0,0,0-3.1,2.19c-.26.09-.52.17-.77.27a30,30,0,0,0-2.84,1.23,3.94,3.94,0,0,0-1.84,1.65,2.31,2.31,0,0,0,.89,3.25,3.46,3.46,0,0,0,3.44-.72c1.18-1,1.75-2.67,3.26-3.31s3.34-.52,4.55-1.91a2.92,2.92,0,0,0,.76-1.79,1.7,1.7,0,0,0-.69-1.5A3.37,3.37,0,0,0,234.58,356.79Z" style="fill:#6EF4FE;opacity:0.4"></path><path d="M370.36,359.41c-1.32,1.35-3.74,1-1.77,3.42a16.43,16.43,0,0,1,1,1.42l-.05.06c-1.19-.32-2.54-1.52-2.11-2.87a3,3,0,0,1,2.87-2.1l0,.07Z" style="fill:#fff"></path><path d="M295.55,353.82a3.2,3.2,0,0,1-1,.95c-.41.14-.83.46-.72.94.09.73.94,1.77.85,2.42a2,2,0,0,1-.9-3.16,1.67,1.67,0,0,1,1.7-1.22l0,.07Z" style="fill:#fff"></path><path d="M302.2,359.39c-.7.93-.73,2.89.64,3.07l1,.15c1.11,0,1.95,1.12,2.45,2-.39.07-1.45-.8-1.78-1a12,12,0,0,1-1.82-.76c-.9-.6-2-1.62-1.42-2.81a1.31,1.31,0,0,1,.9-.71l0,.07Z" style="fill:#fff"></path><path d="M335.84,371.81a14.42,14.42,0,0,1-2.84,1.52c-1.36,1.17-1.76,2.91-2.05,4.64h-.08c-1-2,.36-3.79,2-4.84a3.59,3.59,0,0,1,2.95-1.41l0,.08Z" style="fill:#fff"></path><path d="M225.21,364.49c-.41-2.6,2.73-3.45,4.64-4.12s3.43-3.53,5.66-2.68c-1.72.31-2.25,1.49-4,2.51-.89.72-2.16.43-3.16,1-1.22.84-2.66,1.83-3.1,3.31Z" style="fill:#fff"></path><path d="M230.33,350.63a1.38,1.38,0,0,1,.58-1.78c.39-.54.58-1.24,1.28-1.52.41-.25,1.43-.05,1.36.28a3.47,3.47,0,0,0-1,.44c-.41.26-1.13.46-1.42.94a3.35,3.35,0,0,1-.7,1.64Z" style="fill:#fff"></path><path d="M395.72,459.18H111.15s23.61-9.09,29.59-18.41-9.64-48.71-12-56-11.64-13.8-15.13-23.28-3.49-18.29-8-25.93-14-22.45-7.31-25.28,5.15,8.15,6.48,12,8.48,7.49,11.47,12.64,5.82,15.8,13.64,21.12,10.8,3.82,10.8,1.33-7.31-4.49-7.81-9.31,8-4,10.64,1.16.17,11,2.74,13.14,4.49.41,8.82,1.57,8,6.07,10.39,6.07.75-5.57,4.41-5.23,1.08,6,1.33,9.31,9.06,12.55,11.3,17.12,5.66,11.14,10.81,14.22,12.3,4.24,19,7.23,11.14,8.9,18.87,10.06,10.64-3.07,10.22-5.49-2.32-5.32,0-6.81,5,1.58,3.58,6.07-5.57,11.64.5,13.38,13.47-11.64,21.53-12.55,11.64,9.89,14.72,7.73.91-19.62,6.81-19.29,2.91,8,.34,11.47-6.57,10.9-3.5,13,3.33-7.73,6.32-7,.25,5-1.33,7.23.42,6.4,2,8,5.82-.83,11-.74,6.32,1.74,9.07,1.16,5.4-7.65,10.39-9.31,9.47,0,13-2.74,5.57-13.06,9.81-17.13,16.29-10.14,18.87-14.38,0-13.3,4.24-15.72,5.9,2.58,4.74,4.91-5.15,8.4-2.41,8.48,4.4-8.31,7.9-11.89,6.48-5.74,10.89-6.15,4.82,4.82.7,5.82-6.56-.5-9.39,2.16-2.24,6.95-3.82,10.39c-2.5,5.41-17.09,22.95-15.51,36.17S387.57,459.18,395.72,459.18Z" style="fill:#6EF4FE;opacity:0.4"></path><path d="M98.35,310.25c6.75-2.67,5.17,8,6.46,11.76,1.45,3.57,5.08,5.58,7.7,8.25a20.57,20.57,0,0,1,5.3,7.38c2.52,5.49,4.86,11.28,9.16,15.64,2.35,2.38,9.28,7.44,12.76,5.74a1.86,1.86,0,0,0,.38-2.74c-2.45-2.58-7-4.25-7.37-8.42,0-5,7-3.36,9.35-.93,2.37,2.14,3,5.47,3.07,8.5.09,2.75-.45,6.69,2.91,7.6,1.39.41,3,.07,4.49.2a11.26,11.26,0,0,1,4.48,1.15,23.28,23.28,0,0,1,3.84,2.55,20.87,20.87,0,0,0,3.7,2.55c.66.3,1.41.34,1.76-.24.76-1.27.53-3.09,1.73-4.22a2.59,2.59,0,0,1,3.46.19c.78,1,.65,2.35.54,3.49-.16,1.53-.51,3-.57,4.51s.72,2.78,1.5,4.06c1.65,2.54,3.56,4.92,5.41,7.34a41.11,41.11,0,0,1,5,7.66,48.86,48.86,0,0,0,4.68,7.77c5.5,7.87,15.78,8.38,23.91,12.06,7,2.89,12.18,9.61,20,10.31,3.57.55,9.27-.72,9.14-5.19-.31-1.91-1.52-3.68-1-5.7a2.64,2.64,0,0,1,4.24-1.21c4.28,4.9-2.67,11-1.56,16.48a3.94,3.94,0,0,0,3.94,2.8,7.91,7.91,0,0,0,4-1.59,90.59,90.59,0,0,0,6.94-5.87c16.24-15.31,21.24,8.31,24.61,1.49,1.66-5.06.91-10.67,3-15.67.55-1.49,2.1-3,3.81-2.53a3.93,3.93,0,0,1,2.25,1c1.76,1.88.92,4.76.14,6.85-1.73,4.2-5.21,7.57-6.41,12-.42,1.58-.89,3.87.83,4.77,2.12.77,2.78-5.88,4.66-6.91a1.9,1.9,0,0,1,2.86,1.68c-.13,2-1.36,3.67-2.4,5.3-1.73,2.09-.47,5.07.84,7.09.41.55.81,1.2,1.5,1.35,2.19.3,4.44-.68,6.64-.92a20.23,20.23,0,0,1,9.15.61,9,9,0,0,0,2.18.41,3.34,3.34,0,0,0,2-.5c2.31-1.86,3.79-4.75,6.07-6.74,3.43-3.51,8.69-2.73,13.09-3.42,3.15-.43,5.1-3,6.3-5.71,2-4.1,3.31-8.59,6.28-12.19,2.11-2.27,4.76-3.84,7.29-5.56s5.12-3.31,7.57-5.1c1.76-1.37,3.7-2.71,4.78-4.7,1.58-3.48.88-7.44,1.64-11.18.79-6.23,8.87-6.75,7.67.41-1,2.74-3.48,5.24-3.53,8.25a.66.66,0,0,0,.68.54c1.13,0,1.81-1.15,2.36-2,1.51-2.63,2.52-5.55,4.21-8.11a22.61,22.61,0,0,1,6.76-6.12,13.2,13.2,0,0,1,4.3-1.55c1.47-.28,3.28-.38,4.3.93a2.94,2.94,0,0,1-.75,4.11c-2.64,1.8-6,.63-8.91,1.56-4.91,1.8-4.13,7.72-5.91,11.68,1.27-2.79,1.09-6,2.53-8.75a6.59,6.59,0,0,1,3.36-3A15.7,15.7,0,0,1,388,381c2.14-.12,5-.5,5.52-3,.41-2.82-2.36-3.54-4.64-2.95-4.47.82-8.26,4.08-10.9,7.63-2.19,3.09-2.89,7.22-5.62,9.94-.61.52-1.92.55-2.11-.42-.05-3.05,2.46-5.68,3.49-8.4,1.07-6.58-6.23-6-7-.24-1.17,7.58.88,11.15-6.55,16.14-4.81,3.68-10.47,6.35-14.77,10.62-2.89,3.5-4.21,8.05-6.2,12.1-3.39,8.14-8.91,5.33-15.65,7.08-4.67,1.25-6.44,6.17-9.94,9-1.46,1-3.2.57-4.63.17a19.67,19.67,0,0,0-8.92-.58c-1.5.22-3,.6-4.48.87a4.66,4.66,0,0,1-3-.19c-2-1.78-3.69-5.35-2.71-8.06.78-1.5,4.84-6.45,1.83-7.33-1.79-.31-2.57,3.72-3.31,5.06-.69,1.74-2.14,3.28-3.76,1.25-1-1.41-.58-3.17-.2-4.68,1.47-5.88,7.38-10.08,7.22-16.38a2.77,2.77,0,0,0-2.69-2.62c-4.24-.65-4.31,8.11-4.8,11s-.66,11.43-5.36,7.52c-2.74-2.48-5.07-5.82-8.8-6.77-7.61-1.66-13.09,7.08-18.85,10.78a8.64,8.64,0,0,1-4.39,1.72,4.66,4.66,0,0,1-4.65-3.37c-.72-4.29,2.28-8.14,2.92-12.2a4.69,4.69,0,0,0-1.12-3.93,2,2,0,0,0-3.14.9c-.43,1.78.75,3.61,1,5.39a4.43,4.43,0,0,1-1.13,3.42c-3.36,3.61-9,3-13.24,1.43-5.78-2.18-10-7-15.68-9.31a90.91,90.91,0,0,0-8.58-3c-5.81-1.74-12-4-15.53-9.23-3.74-4.91-5.6-10.75-9.68-15.45-1.84-2.43-3.75-4.81-5.42-7.38-.77-1.3-1.73-2.78-1.57-4.36-.15-2.14,2-7.37-.68-8.16a2.06,2.06,0,0,0-1.93.35c-1.51,1.4-.65,6-4,4.54-4-2.15-7-6.21-11.86-6.24-1.53-.13-3.08.22-4.6-.23-3.59-1-3.15-5.09-3.21-8a16.62,16.62,0,0,0-.64-4.45,8.3,8.3,0,0,0-6.18-5.82c-1.4-.28-3.07-.33-4.14.71-2,2.62.93,5.7,3.06,7.25,1.76,1.4,6.07,3.66,3.09,6.17-1.79,1-3.91.1-5.63-.64a25.91,25.91,0,0,1-7.51-5.2c-4.31-4.41-6.63-10.24-9.13-15.75a20.56,20.56,0,0,0-5.23-7.37c-2.62-2.67-6.25-4.71-7.69-8.32-1.32-3.86.39-14.39-6.38-11.78Z" style="fill:#6EF4FE;opacity:0.7000000000000001"></path><path d="M97.66,319.36c1.59,3,5.15,4,7.17,6.1.19.36-.25.77-.52.77-1,0-1.63.12-1.73,1.18,0,1.31,1.54,2,2.51,2.72,1.61,1.08,3.2,1.95,4.81,3.08,4.92,3.56,5.29,10.14,7.65,15.2a34.4,34.4,0,0,0,15.93,14.88c9,3.71,18.47,5.83,27.56,9.31,3.38,1.55,5.9,4.46,8.21,7.25,4.76,6,8.56,12.59,12.35,19.18a46.6,46.6,0,0,0,7.07,8.74c10.61,10.93,25,17.37,39.89,19.7a37.45,37.45,0,0,1,11,3.25c5,2.31,10.21,5.3,15.59,3.2,3.46-1.4,7-3.41,10.77-4,12.15-2.39,17.47,4.87,23.59,13.76a9.81,9.81,0,0,0,1.73,1.85,8,8,0,0,0,4.66,1.68,11.25,11.25,0,0,1,4.59.65c2,1,3.85,2.33,6.17,2.24,4.52-.31,8.68-2.91,12.76-4.81,4.82-2.63,10.08-5.19,14.06-8.94,2.47-2.76,3.67-6.49,5.93-9.56a11.65,11.65,0,0,1,4.77-3.64c3.29-1.57,7.15-2.57,9-5.85,2.74-4.9,5-10.36,8.78-14.68,3.82-4.58,10.39-4.66,14.69-8.58l.13.15c-2.86,2.75-6.49,3.83-9.9,5.52-6.72,3.7-9,11.83-12.56,18.23-2.37,4.53-8,5.3-11.8,8-2.19,1.67-3.22,4.25-4.53,6.69a24.1,24.1,0,0,1-3.17,5,25.64,25.64,0,0,1-4.59,3.72c-6.5,4.17-13.16,8-20.51,10.42a10.53,10.53,0,0,1-6.19,0c-2-.63-3.62-2.1-5-2.24a19.17,19.17,0,0,0-2.71-.12,9.92,9.92,0,0,1-5.85-2.1,11.88,11.88,0,0,1-2.14-2.29c-4.18-5.88-8.31-13-16.16-13.52-15.79-.49-14.68,10.71-32.72.55a36.31,36.31,0,0,0-10.63-3.41c-11.18-2.15-22.23-6.1-31.43-12.93-6.12-4.52-11.9-9.69-16-16.16C177,393,173,386.52,168.17,380.74c-2.43-2.8-5-5.65-8.4-6.85-8.82-3.2-18.25-5.27-27-9.05A35.6,35.6,0,0,1,116.24,349c-2.59-6.18-2.58-13.17-9.29-16.57a23,23,0,0,1-4.6-3.54,2.16,2.16,0,0,1-.5-1.59,1.91,1.91,0,0,1,.85-1.46,3.52,3.52,0,0,1,1.56-.27h0s0,.08,0,.06l0-.06c-2.26-2-5.37-3.33-6.74-6.18l.18-.08Z" style="fill:#6EF4FE;opacity:0.7000000000000001"></path><path d="M119.57,345a48.87,48.87,0,0,0,8.66,11.43,16.19,16.19,0,0,0,5.89,3.78c2,.66,5,1.61,6.62-.3a2.37,2.37,0,0,1-1.36,1.2c-4.21,1.25-8.83-1.07-11.84-4a32.89,32.89,0,0,1-8-12.15Z" style="fill:#fff"></path><path d="M171.08,378.41c5.12,5.53,8.58,12.32,12.6,18.59a37.83,37.83,0,0,0,4.82,6.73c3.39,3.2,7.9,4.84,12.29,6.26,3.27,1.06,7.65,2.07,10.78,3.59,3.37,1.87,6.21,4.18,9.45,6.12,5.87,3.82,14.25,6.41,20.13,1.39l.16.13c-2.42,3.12-6.66,4.26-10.47,4-7.92-.37-13.92-6-20.17-10-3.17-1.62-6.94-2.72-10.26-4.21-5.13-2.28-10.65-4.43-14.53-8.67-6.43-7-10-15.94-14.95-23.81l.15-.13Z" style="fill:#fff"></path><path d="M247.21,431.13c3.14-.45,5.53-2.68,8-4.42a90.22,90.22,0,0,1,7.78-5.42c5.34-3.45,9.4-1.25,13.55,2.59a18.23,18.23,0,0,0,3.72,2.82,13.24,13.24,0,0,1-4.31-2c-2.7-1.69-5.77-4-9-3-3.93,1.49-7.16,4.25-10.87,6.39-2.68,1.51-5.69,3.53-8.91,3.12Z" style="fill:#fff"></path><path d="M289.78,407.13a4.12,4.12,0,0,0-3,3.22c-.53,1.51-.83,3.14-1.41,4.76a11.45,11.45,0,0,1,0-2.55c.13-2.39,1.43-6.13,4.48-5.43Z" style="fill:#fff"></path><path d="M294.54,440.84c3.78-.63,7.48-2.38,11.45-1.65,3.17.46,6.18,1.81,9.2.66,1.85-1.18,2.42-3.5,3.77-5.45a8.74,8.74,0,0,1,4.52-3.76c3.58-1.32,7.7-.32,11.06-2.14a9.43,9.43,0,0,0,3.81-3.65c2.95-4.94,4.76-10.56,8.68-15,5.6-5.25,13.38-8.18,18.49-13.52-1.67,3.51-5.21,5.71-8.14,8.09-2.59,2-6.61,4.65-8.8,6.92-4.07,4.55-6,10.72-9.86,15.51a11.17,11.17,0,0,1-3.73,2.57c-5.41,2.16-12.21-.86-15.08,5.49-1.12,2-1.61,4.95-3.86,6.4-3.27,1.7-7.16.07-10.34-.63a16.33,16.33,0,0,0-5.45-.14,37.69,37.69,0,0,1-5.71.46v-.2Z" style="fill:#fff"></path><path d="M371.15,380.13c-3.06,1.9-2.76,5.71-3.7,8.85-.61-3.1-.19-8.29,3.7-8.85Z" style="fill:#fff"></path><path d="M380.3,381.77c2.4-3.29,6.69-6.3,10.93-5.38-4.17.55-7.48,3.1-10.93,5.38Z" style="fill:#fff"></path><path d="M135,349.83c-3.5-5,4.49-4.93,6.5-1.85a6.33,6.33,0,0,1,1.36,3.21,7.23,7.23,0,0,0-4.65-4.19c-2.56-.57-4.27-.21-3.21,2.83Z" style="fill:#fff"></path><path d="M98.35,311.69a3.41,3.41,0,0,1,3.25,1.12c2.45,2.68,1.53,6.92,2.92,9.87.9,2.1,2.89,3.41,4.37,5.11a45.15,45.15,0,0,1,4.31,5.46,71.44,71.44,0,0,0-7.39-7.27,9,9,0,0,1-2.19-2.89c-1.92-3.73.39-10.95-5.27-11.4Z" style="fill:#fff"></path><path d="M310.68,456.64c7.05-.86,14-2.42,21-3.41a154.72,154.72,0,0,0,21.06-3.61c2.16-.52,4.37-1.07,6.57-1.44a1.48,1.48,0,0,0,.83-.32c1.39-1.67.59-4.63.34-6.79-.58-3.52-1.43-7-1.79-10.56a11.32,11.32,0,0,1,.69-5.6,65.21,65.21,0,0,1,4.38-9.84l.18.08c-1.23,3.83-2.5,7.6-3.34,11.47a9.39,9.39,0,0,0,0,3.66c.35,4.2,5.06,17.63-.28,19.42-5.85.83-12.16,1.52-17.93,2.75-7,1.59-13.88,3.4-21,4.06a53.52,53.52,0,0,1-10.74.33v-.2Z" style="fill:#6EF4FE;opacity:0.7000000000000001"></path><path d="M189.88,455.05a108,108,0,0,1,19.94.68c6.66.21,13.32-.64,20-.37,4.43.13,8.9.46,13.29,1l0,.19a95.87,95.87,0,0,1-20,.7c-4.44-.14-8.86-.94-13.31-.89s-8.89.59-13.34,0a32.37,32.37,0,0,1-6.63-1.17l0-.19Z" style="fill:#6EF4FE;opacity:0.7000000000000001"></path><path d="M139.62,411.09a143.75,143.75,0,0,1,6.06,23.12,58.24,58.24,0,0,1,1.06,8.91c.64,1.58,1.34,3.57,3.25,4,2.89.8,5.72,1.77,8,3.91l-.07.19a9.91,9.91,0,0,1-3.1-.27,11.35,11.35,0,0,1-4.12-2,15.6,15.6,0,0,0-3.72-2.82,3.53,3.53,0,0,1-1.29-1.12,3.25,3.25,0,0,1-.38-2.67,12.3,12.3,0,0,0,0-2.1,164.15,164.15,0,0,0-5.82-29.12l.19-.07Z" style="fill:#6EF4FE;opacity:0.7000000000000001"></path><path d="M115.46,355.84c1.11,3.59,3.52,6.52,6,9.25,4.41,4.92,9.93,8.67,14.28,13.68,4.73,7.35,4.53,16.45,6.7,24.59,3.12,8.85,5.45,17.93,7.92,27a12.68,12.68,0,0,0,1.22,3.24.36.36,0,0,0-.32,0c.32-3.59-1.27-8.08-2.59-11.78-.57-2-1.51-3.77-1.21-5.93a1.5,1.5,0,0,1,1.16-1.19c.9,0,1,.38,1.38.81a20.87,20.87,0,0,1,1.67,4.14c.79,2.25,1.89,6.88,3.11,8.83a.83.83,0,0,0-.33-.13.7.7,0,0,0-.62.23c-.18.3-.06.14-.09,0-.23-2.07-1.26-4.39-1.87-6.47a3.15,3.15,0,0,1-.21-1.41,1.11,1.11,0,0,1,1.91-.52c2.16,3.36,3.25,7.31,5.42,10.59,0,0,0,0-.31-.15a.81.81,0,0,0-.83.33,14.47,14.47,0,0,0-.14-4.73l-.05-.24s0,0,0,0c-1.52.22,2.09-.14,1.64-.7.83,2,1.93,4.43,2.91,6.51,1,1.9,1.83,4.2,3.15,5.78a.56.56,0,0,0-.26,0,.39.39,0,0,0-.27.23c.08-1.35-.46-2.81-.54-4.26,0-.21-.06-.33.33-.58s.46.09.52.09a7.81,7.81,0,0,1,1,1.91,56.76,56.76,0,0,0,3.51,7.63l-.15.12c-2-2.57-3.24-5.8-4.77-8.62a2.14,2.14,0,0,0-.16-.27s-.07-.09,0,0,0,.15.44.06a.48.48,0,0,0,.28-.33,39.6,39.6,0,0,1,.78,4.18,1,1,0,0,1-.61,1c-.95.16-1.45-.89-1.8-1.31a51.17,51.17,0,0,1-2.82-5c-1.1-2.18-2.22-4.41-3.22-6.64-.46-.61,3.18-.89,1.68-.66l.07.18c.38,1.45,1.57,7.68-1.13,7.19a1.67,1.67,0,0,1-.95-.74c-2.08-3.23-3.4-6.77-5.19-10.08,0-.07-.14-.2-.05-.1s0,0,.13.11a1,1,0,0,0,1,.11c.72-.44.6-.68.65-.89v0a3.86,3.86,0,0,0,.15.54c.41,1.31.9,2.69,1.3,4s1.42,3.89-.34,4.79c-2.19.75-2.88-3.35-3.42-4.69-.83-2.46-1.8-7-3.06-9.24a.59.59,0,0,0,.42.1c.4-.1.32-.16.35-.17s0,0,0,0c-.14,1.6.6,3.41,1,5,1.14,3.6,2.34,7.34,2.19,11.19,0,.71-.12,2.41-1.26,1.94-1-.88-1.15-2.7-1.54-3.9-1.32-5.29-2.71-11.13-4.31-16.3-1-3.64-2.64-7-3.89-10.57-2.22-7.11-2.91-14.76-5.74-21.58-1.45-3.4-4.55-5.59-7.1-8.17-4-3.9-8.25-7.88-11.17-12.77a16.78,16.78,0,0,1-2.11-5.26l.2-.05Z" style="fill:#6EF4FE"></path><path d="M369.34,402.46a46.67,46.67,0,0,0-5.4,9.18,116.12,116.12,0,0,0-6.08,14.77c-.09,5.32.74,10.67,1.08,16,0,.43.14.9-.12,1.3-.77.54-.85-1.2-1-1.6l-.46-2.64a10.92,10.92,0,0,0-.49-2,.37.37,0,0,0,.35.15.39.39,0,0,0,.26-.15c.07-.11,0,0,0,0-.26,2.22.15,4.58-.28,6.8a.61.61,0,0,1-.8.33c-.57-.36-.62-.92-.87-1.47-.34-.94-.76-2.34-1-3.05a.5.5,0,0,0,.43.16.48.48,0,0,0,.39-.31V440c0,.19-.08,1.4-.1,1.62a10.7,10.7,0,0,1-.49,3.57.84.84,0,0,1-.71.38c-1.14-.16-1.71-1.3-2.56-1.81a.31.31,0,0,0,.14,0,.22.22,0,0,0,.09-.06c-.29.66-.31,1.43-.58,2.14s-1.16,1.68-2.05,1c-.35-.22-.6-.4-1-.32-.57.16-.75.83-1.21,1.28-.93,1.1-2.47,1.29-3.74,1.7l-2.59.7,0-.1c2-.86,4.42-1.14,5.92-2.67.54-.79,1.09-2,2.34-1.57.54.17.94.54,1,.44.94-.57.57-2.21,1.14-3.11.42-.64,1.18-.14,1.52.18a12.73,12.73,0,0,0,1.48,1.18c.06,0,.12,0,.1,0s-.17.07-.16.08a31.13,31.13,0,0,0,.4-4.78.82.82,0,0,1,.23-.54.5.5,0,0,1,.3-.14.61.61,0,0,1,.43.13,2.53,2.53,0,0,1,.43.9c.22.64.86,2.84,1.16,3.41l.06.1-.1-.06a.44.44,0,0,0-.54.19,29.16,29.16,0,0,0,.18-3.65,22.58,22.58,0,0,1,.18-2.93.78.78,0,0,1,.13-.33c.34-.42.85-.08.93.34.53,1.74.56,4.2,1,6,0,0,.07.09,0,0-.3-.14-.37.16-.34.09.17-5.68-.87-11.36-1.07-17,1.18-5.3,3.58-10.2,6-15,1.71-3.14,3.44-6.38,6-8.91l.07.07Z" style="fill:#6EF4FE"></path><g style="opacity:0.4"><polygon points="213.53 336.44 213.53 336.44 213.53 336.44 213.52 336.44 213.53 336.44" style="fill:#6EF4FE"></polygon></g><path d="M161.51,345.35a1.09,1.09,0,0,0-.54-1.26.7.7,0,0,0-.3-.12.81.81,0,0,0-.34,0,1.52,1.52,0,0,0-.47.1.76.76,0,0,0-.25.19,1,1,0,0,0-.26.39.78.78,0,0,0,0,.33,1.14,1.14,0,0,0,.3.73,1.48,1.48,0,0,0,.54.35,1.13,1.13,0,0,0,.63,0,.87.87,0,0,0,.61-.54h0A.67.67,0,0,0,161.51,345.35Z" style="fill:#6EF4FE;opacity:0.4"></path><path d="M94.56,317.27a1.11,1.11,0,0,0-.54-.13,1.26,1.26,0,0,0-1.24,1.25.68.68,0,0,0,.08.31,1,1,0,0,0,.09.13.69.69,0,0,0,.2.13.42.42,0,0,0,.22.05h.18a.58.58,0,0,0,.18-.08,1,1,0,0,0,.34.41.68.68,0,0,0,.4.07.46.46,0,0,0,.23-.06.55.55,0,0,1,.14-.09,1.25,1.25,0,0,0,.34-.9,2.06,2.06,0,0,0,0-.26,1.45,1.45,0,0,0-.09-.25,1,1,0,0,0-.21-.32A1.32,1.32,0,0,0,94.56,317.27Z" style="fill:#6EF4FE;opacity:0.4"></path><path d="M93.85,308a1.37,1.37,0,0,0,.34-.34.8.8,0,0,0,.12-.58,1,1,0,0,0,0-.24h0a.59.59,0,0,0-.09-.24,1.41,1.41,0,0,0-.35-.34h0a.89.89,0,0,0-.34-.16.48.48,0,0,0-.29,0h-.25a1.35,1.35,0,0,0-.58.24.92.92,0,0,0-.28.24,1.93,1.93,0,0,0-.17.21,1.46,1.46,0,0,0-.1.23.7.7,0,0,0,0,.35.59.59,0,0,0,.16.29,1.49,1.49,0,0,0,.62.42,1.57,1.57,0,0,0,.58.09A1.26,1.26,0,0,0,93.85,308Z" style="fill:#6EF4FE;opacity:0.4"></path><path d="M128.76,343.25a1.5,1.5,0,0,0,.21-.66c0-.15,0-.29,0-.42s0-.56-.22-.68a.13.13,0,0,1-.07-.08s0-.05-.07-.08a1.24,1.24,0,0,0-.18-.14.26.26,0,0,0-.15,0,.16.16,0,0,0-.05-.09,1.43,1.43,0,0,0-1.17-.45,2.11,2.11,0,0,0-1.15.43,1.65,1.65,0,0,0-.56.91,1.62,1.62,0,0,0,.24,1.3,2.07,2.07,0,0,0,1,.81A1.77,1.77,0,0,0,128.76,343.25Z" style="fill:#6EF4FE;opacity:0.4"></path><path d="M128.33,336a3.31,3.31,0,0,0,.64-2,2.91,2.91,0,0,0-.14-1,3.79,3.79,0,0,0-.44-.85,0,0,0,0,0,0,0,3,3,0,0,0-1.35-2.16,2.42,2.42,0,0,0-2.39,0,2.82,2.82,0,0,0-1.37,1.95,3.81,3.81,0,0,0,.5,2.7,7.67,7.67,0,0,0,.79,1.08,4.57,4.57,0,0,0,.89.92,2,2,0,0,0,1.62.31A2.49,2.49,0,0,0,128.33,336Z" style="fill:#6EF4FE;opacity:0.4"></path><path d="M161.59,363.71a3.19,3.19,0,0,1-.11.33.52.52,0,0,0,0,.37.36.36,0,0,0,.12.15.24.24,0,0,0,.1.06.41.41,0,0,0,.19,0h.13a.48.48,0,0,0,.16-.08l.13-.13a0,0,0,0,1,0,0s0-.07,0-.09l.12-.32c0-.05,0-.1,0-.16a.85.85,0,0,0,0-.17.36.36,0,0,0,0-.25.42.42,0,0,0,0-.1.24.24,0,0,0-.12-.14.15.15,0,0,0-.09-.06.3.3,0,0,0-.18,0h-.12a.34.34,0,0,0-.16.08.49.49,0,0,0-.13.12l-.08.16C161.65,363.54,161.63,363.62,161.59,363.71Z" style="fill:#6EF4FE;opacity:0.4"></path><path d="M175.67,351.54a.61.61,0,0,0,.06-.21.41.41,0,0,0,0-.21v0s0-.1,0-.14a.74.74,0,0,0,0-.14,1.25,1.25,0,0,0-.19-.34,1,1,0,0,0-.23-.23s0,0-.05,0l0,0-.16-.11a1.3,1.3,0,0,0-.62-.12.09.09,0,0,0-.08.08s0,.07,0,.09a1.69,1.69,0,0,0-.24.08,1.65,1.65,0,0,0-.61.75,1.43,1.43,0,0,0-.08.79.88.88,0,0,0,.6.76,1.5,1.5,0,0,0,.84,0,2.15,2.15,0,0,0,.37-.19,1.24,1.24,0,0,0,.54-.72Z" style="fill:#6EF4FE;opacity:0.4"></path><path d="M138.2,342.35a1.68,1.68,0,0,0,1.3-2,3.2,3.2,0,0,0-1.25-1.77c-.84-.65-1.77-1.2-2.67-1.79a6.17,6.17,0,0,0-2.48-1.27,1.67,1.67,0,0,0-2,1.71,3.24,3.24,0,0,0,1.5,2.38,4.28,4.28,0,0,0,2.22.75c.3.31.6.62.91.92A3.11,3.11,0,0,0,138.2,342.35Z" style="fill:#6EF4FE;opacity:0.4"></path><path d="M169.42,352.63a3.17,3.17,0,0,0-.88-3.5,4.2,4.2,0,0,0-4.16-.73,5.83,5.83,0,0,0-3.93,4.94,4.64,4.64,0,0,0,.91,3.24,3.17,3.17,0,0,0,3.27,1.27,4.25,4.25,0,0,0,2.29-2,11.81,11.81,0,0,1,.77-1.17c.28-.37.81-.77,1.15-1.19a2.84,2.84,0,0,0,.28-.51A.84.84,0,0,0,169.42,352.63Z" style="fill:#6EF4FE;opacity:0.4"></path><path d="M102.62,304.57a3.17,3.17,0,0,0,3.6-.28,4.2,4.2,0,0,0,1.42-4,5.82,5.82,0,0,0-4.2-4.71,4.63,4.63,0,0,0-3.35.35,3.15,3.15,0,0,0-1.8,3,4.28,4.28,0,0,0,1.57,2.6,11.58,11.58,0,0,1,1,1c.32.33.62.92,1,1.33a2.71,2.71,0,0,0,.46.36A.72.72,0,0,0,102.62,304.57Z" style="fill:#6EF4FE;opacity:0.4"></path><path d="M158.19,354.26a1.14,1.14,0,0,0-.07-.75.58.58,0,0,0-.21-.26,2.73,2.73,0,0,0-.14-.58,1.49,1.49,0,0,0-.24-.43A.64.64,0,0,0,157,352a1.76,1.76,0,0,0-1.34.26,2.15,2.15,0,0,0-.8,1,1.66,1.66,0,0,0,1.75,2.23,1.84,1.84,0,0,0,1-.38A1.31,1.31,0,0,0,158.19,354.26Z" style="fill:#6EF4FE;opacity:0.4"></path><path d="M404.38,347.5a3.07,3.07,0,0,0-1.68,1,.27.27,0,0,1-.07.08,2.78,2.78,0,0,0-1,1,2.47,2.47,0,0,0-.25,2c.16.41.48.84,1,.82s.84,0,1.25-.08a4.26,4.26,0,0,0,2.36-.85,2.81,2.81,0,0,0,1-1.83,2,2,0,0,0-.77-1.83A2.3,2.3,0,0,0,404.38,347.5Z" style="fill:#6EF4FE;opacity:0.4"></path><path d="M406.36,357.43a6.42,6.42,0,0,0-1.78.68,25.24,25.24,0,0,0-3.09,2.19c-.26.09-.52.16-.78.27a29.68,29.68,0,0,0-2.84,1.23,4,4,0,0,0-1.83,1.65,2.3,2.3,0,0,0,.89,3.25,3.46,3.46,0,0,0,3.44-.72c1.18-1,1.75-2.67,3.26-3.31s3.34-.52,4.55-1.91a2.92,2.92,0,0,0,.76-1.79,1.72,1.72,0,0,0-.69-1.51A3.46,3.46,0,0,0,406.36,357.43Z" style="fill:#6EF4FE;opacity:0.4"></path><path d="M384.21,353.59a2.29,2.29,0,0,0-1.27.49,2.73,2.73,0,0,0-.9.6,2.81,2.81,0,0,0-.74,1.28,1.22,1.22,0,0,0,.09,1,1,1,0,0,0,.74.47,1.88,1.88,0,0,0,.85-.09l.31-.11.11,0h.09l0,0,0,0a1,1,0,0,0,.32.22,1,1,0,0,0,1-.26,3.4,3.4,0,0,0,1-1.43c.23-.56.56-1.31,0-1.77A2.62,2.62,0,0,0,384.21,353.59Z" style="fill:#6EF4FE;opacity:0.4"></path><path d="M382.1,359.2a1,1,0,0,0-.71.39,1.17,1.17,0,0,0-.23.77,1,1,0,0,0,.38.68,1,1,0,0,0,.77.15.83.83,0,0,0,.6-.47.87.87,0,0,0,0-.69.32.32,0,0,0,.17-.22.42.42,0,0,0-.17-.36,1,1,0,0,0-.32-.19A1,1,0,0,0,382.1,359.2Z" style="fill:#6EF4FE;opacity:0.4"></path><path d="M372.32,363.73a.49.49,0,0,0-.21,0,.8.8,0,0,0-.36.29,1,1,0,0,0-.14.44.81.81,0,0,0,.05.27,1.45,1.45,0,0,0-.19.23.22.22,0,0,0-.31.23.67.67,0,0,0,.22.45l.06,0a.35.35,0,0,0,.05.13.48.48,0,0,0,.55.16,2.29,2.29,0,0,0,1-.58,1.12,1.12,0,0,0,.28-.93.9.9,0,0,0-.27-.54.88.88,0,0,0-.46-.21h-.24Z" style="fill:#6EF4FE;opacity:0.4"></path><path d="M380.87,363.45a1.65,1.65,0,0,0-1.39.63l0,0a2.57,2.57,0,0,0-.88,1.16.08.08,0,0,0,0,.07l-.27.44c-.42.64-.81,1.3-1.19,2-.68,1.14-1.39,2.29-2,3.48a2,2,0,0,0,.69,2.63c2.1,1.39,4.47-1.05,5.5-2.68a20.43,20.43,0,0,0,1.51-3,3.59,3.59,0,0,0,.33-3,2.62,2.62,0,0,0-1.54-1.42A1.18,1.18,0,0,0,380.87,363.45Z" style="fill:#6EF4FE;opacity:0.4"></path><path d="M102,296.49c-1.32,1.35-3.74,1.05-1.77,3.42a16.43,16.43,0,0,1,1,1.42l0,.06c-1.19-.32-2.54-1.52-2.11-2.87a3,3,0,0,1,2.87-2.1l0,.07Z" style="fill:#fff"></path><path d="M126.1,330.57a3.2,3.2,0,0,1-1,.95c-.4.14-.82.46-.72.94.09.73.94,1.77.85,2.43a2,2,0,0,1-.89-3.16,1.66,1.66,0,0,1,1.69-1.23l0,.07Z" style="fill:#fff"></path><path d="M132.76,336.14c-.7.93-.74,2.9.63,3.08l1,.14c1.1,0,1.94,1.13,2.45,2-.4.08-1.45-.8-1.79-1a12.51,12.51,0,0,1-1.82-.77c-.9-.59-2-1.62-1.42-2.81a1.28,1.28,0,0,1,.91-.7l0,.06Z" style="fill:#fff"></path><path d="M166.39,348.56a15.25,15.25,0,0,1-2.83,1.53c-1.36,1.16-1.77,2.91-2.06,4.63l-.08,0c-1-2,.37-3.79,2-4.85a3.6,3.6,0,0,1,3-1.4l0,.07Z" style="fill:#fff"></path><path d="M376.43,373a1.4,1.4,0,0,1-.48-1.3c.09-1.42,1.41-2.19,1.9-3.45s1.26-4.1,3.31-3.64v.08c-1.66.5-1.73,2.67-3,3.8a4.78,4.78,0,0,0-1.24,2.2c-.27.77-.7,1.44-.45,2.26l-.06,0Z" style="fill:#fff"></path><path d="M397,365.12c-.41-2.59,2.72-3.45,4.64-4.11s3.43-3.53,5.66-2.68c-1.72.31-2.26,1.49-4,2.5-.88.73-2.16.44-3.15,1-1.22.84-2.66,1.83-3.1,3.31Z" style="fill:#fff"></path><path d="M402.11,351.27a1.38,1.38,0,0,1,.58-1.78c.39-.54.58-1.24,1.28-1.53.41-.24,1.43,0,1.35.29a3.52,3.52,0,0,0-1,.44c-.41.25-1.13.46-1.42.94a3.35,3.35,0,0,1-.7,1.64Z" style="fill:#fff"></path><path d="M240,376a9.34,9.34,0,0,0-1.33,4.15c0,.92,0,1.83.08,2.66.09,1.25.88,4.24,4.16,7.4,1.92,1.83,5.32,3.41,7.89,3.16a11.32,11.32,0,0,0,10.81-9.22,10.15,10.15,0,0,0-1.5-8.15,13.19,13.19,0,0,0-6.65-5.16A11.18,11.18,0,0,0,240,376Z" style="fill:#6EF4FE;opacity:0.4"></path><path d="M243,386.83a5.86,5.86,0,0,1-2.25-6.63c.12-.42.34-1,.49-1.38,1.23-5.5,5.69-8.45,11.16-6.7v.2c-1.84.66-3.51,1.09-5,1.76a24,24,0,0,0-2.23,1.07c-1.57,1.05-3.35,2.4-3.35,4.49a69,69,0,0,0,1.39,7.07l-.17.12Z" style="fill:#fff"></path><path d="M257.77,376.78a7.35,7.35,0,0,1,1.2,8,8.68,8.68,0,0,1-5.74,6,11.31,11.31,0,0,1-5.63.09v-.1c4.26-.44,9.52-1.53,11.05-6.05a7.28,7.28,0,0,0,.17-2.67,16.18,16.18,0,0,0-1.15-5.2l.09-.05Z" style="fill:#6EF4FE;opacity:0.7000000000000001"></path></g><g id="freepik--Floor--inject-406"><path d="M46.66,459.18c130.27-.61,276.41-.62,406.68,0-130.27.62-276.41.61-406.68,0Z" style="fill:#263238"></path></g><g id="freepik--Leaves--inject-406"><path d="M167.41,207.06c-.21-.06-11.84-12.69-38.59-21.28l-3.14-1c-4.28-1.26-9-2.42-14-3.42l-1.12-.21c-.9-.18-1.83-.34-2.77-.5-8.5-1.45-16.43-6.21-22.71-12.29C78.42,162,75.61,153.65,73.25,145c-2.68-9.84-5.86-22.09-16.59-26-.92-.33-1.86-.63-2.78-.87-1.2-.32-2.41-.57-3.6-.8-5.58-1-11.07-1.39-16-4.2A19.35,19.35,0,0,1,31,110.82l-.71-.65C24,104.24,20.84,95.73,18.42,87.66a231.43,231.43,0,0,1-7.25-32.83C9.55,43.77,10,31.48,4.6,21.42A36.39,36.39,0,0,0,0,14.8V7.63H0C7.85,11,15.67,14.28,23.37,17.85c1.16.53,2.31,1.06,3.45,1.61,4.64,2.2,9.23,4.51,13.73,7A136.33,136.33,0,0,1,72.4,50.75c.73.75,1.46,1.51,2.18,2.28.37.36.72.74,1.06,1.12,1.21,1.29,2.39,2.61,3.57,4,.83,1,1.66,1.92,2.48,2.91l.26.3c12.93,15.4,27.86,29,43.14,42,2.43,2.07,4.95,4.1,7.36,6.23,1.62,1.42,3.18,2.87,4.64,4.42a39.87,39.87,0,0,1,4,4.82c.59.86,1.15,1.73,1.67,2.65.18.32.35.63.51,1,4,7.51,5.58,16.34,7.8,24.44C156.62,166.87,162.18,186.93,167.41,207.06Z" style="fill:#455a64"></path><path d="M153.86,177.3c-7.47-18.92-13.44-38.49-27.18-54.05l-.44-.49c2.9,11.21,3,22.94,6.53,34.07.14.42-.53.7-.7.3-5-11.11-4.29-23.76-6.87-35.5-11.73-12.72-26.46-22.4-38.57-34.78-5.56-5.66-10.91-11.49-16.3-17.26,11.06,24.09,14,51.53,30,73.59.26.35-.33.79-.6.46-9.26-11.2-14.62-24.74-19.08-38.43-4.25-13-8.14-26.12-13.32-38.81q-2.11-2.24-4.26-4.46C58,56.73,52.84,51.65,47.32,46.87c-.16-.14-.32-.28-.49-.41-1.76-1.52-3.54-3-5.34-4.48-6.11-5-12.41-9.72-18.83-14.27,2.63,5.35,3.85,11.43,4.89,17.42.47,2.66.9,5.29,1.4,7.84a125.4,125.4,0,0,0,15.17,38.9c.39.67-.61,1.24-1,.61A104.53,104.53,0,0,1,30.94,68.22a264.67,264.67,0,0,0,5.74,25.89.44.44,0,0,1-.84.24,112.67,112.67,0,0,1-6.46-31c-.54-1.83-1-3.66-1.48-5.51C26.61,52.41,25.74,47,24.61,41.64A70.55,70.55,0,0,0,19.52,25.5q-5.85-4-11.82-7.92Q3.88,15.09,0,12.67V9.2c1.05.62,2.1,1.26,3.15,1.9q4.55,2.76,9,5.64c7.36,4.72,14.59,9.68,21.59,14.94q1.47,1.08,2.91,2.19,4.24,3.27,8.37,6.67c.65.14,1.29.29,1.94.46q1.92.47,3.84,1A95.89,95.89,0,0,1,74.58,53c.37.36.72.74,1.06,1.12,1.21,1.29,2.39,2.61,3.57,4A179.72,179.72,0,0,0,52.85,44.49L52,44.14c-1.69-.71-3.4-1.39-5.13-2.06,3.16,2.66,6.27,5.38,9.29,8.2,3.65,3.38,7.12,6.94,10.49,10.58,9.8,10.56,18.8,21.85,29.18,31.85,2.5,2.41,5.08,4.71,7.7,7a106.76,106.76,0,0,1,28.92,9.86c1.62,1.42,3.18,2.87,4.64,4.42a166.05,166.05,0,0,0-32.16-13.08c10.46,9,21.34,17.43,29.29,28.9,9.76,14,16.13,30.84,20.94,47.15C155.42,177.79,154.18,178.09,153.86,177.3Z" style="fill:#263238"></path><path d="M190.12,85.08c-.18,0-13.77-5.22-37.36-1.74l-2.76.44c-3.73.64-7.73,1.52-12,2.66l-.93.25-2.29.66c-7,2.08-14.84,1.43-21.9-.84-7.43-2.38-12.71-7.69-17.75-13.4C91.42,68.88,87.14,64,82,61.32a16,16,0,0,0-9.15-1.78c-.83.1-1.65.22-2.45.38-1,.21-2,.47-3,.75l-.66.19c-1.2.35-2.38.72-3.56,1.08a27.18,27.18,0,0,1-9.56,1.53,16.47,16.47,0,0,1-3.37-.53l-.79-.23c-7-2.18-12.58-7.47-17.44-12.7q-2.22-2.4-4.38-4.88-1.49-1.73-2.94-3.49Q19,34.92,14.11,27.73C11.89,24.51,9.87,21,7.7,17.58A70.9,70.9,0,0,0,3.15,11.1,39.36,39.36,0,0,0,0,7.65l0,0V0H54.06c1.72.52,3.43,1.07,5.14,1.67.84.3,1.67.6,2.51.92.42.14.82.29,1.23.46q2.1.8,4.2,1.68c1,.41,2,.83,3,1.28C85.83,13,102.4,17.74,119,22c2.62.66,5.3,1.26,7.94,2,1.76.47,3.5,1,5.19,1.62A34,34,0,0,1,137,27.75c.77.42,1.53.88,2.27,1.38.25.18.5.35.74.54,5.83,4.23,10.37,10.35,15.09,15.68C166.84,58.53,178.59,71.72,190.12,85.08Z" style="fill:#37474f"></path><path d="M168.65,67.5c-12.78-11.6-24.66-24.27-40.95-31l-.52-.2c6.41,7.44,10.88,16.34,17.74,23.49.26.27-.14.73-.43.49-7.93-6.6-12.16-16.49-18.53-24.46-13.69-5.28-28.54-7.13-42.4-12-6.35-2.23-12.61-4.67-18.88-7,17.45,14.21,30,34,50.44,44.79.33.16,0,.72-.29.57C103.59,57.09,94.43,48.79,85.9,40c-8.13-8.34-16-16.84-24.69-24.55A233.08,233.08,0,0,0,38.65,8.12c-8.58-2.23-17.24-3.95-26-5.35,5.73,4.4,9.81,11,14.13,16.69l.13.18A104.75,104.75,0,0,0,50.82,42.05q1.11.78,2.25,1.53a.5.5,0,0,1-.22.91.43.43,0,0,1-.34-.06L52,44.14Q49.44,42.66,47,41a89.43,89.43,0,0,1-12.8-10.49c.82,1.13,1.64,2.25,2.49,3.36,3.22,4.31,6.58,8.49,10.16,12.59.47.54.94,1.08,1.42,1.61.31.36-.21.81-.55.5-2.15-2.07-4.23-4.28-6.21-6.59a96.42,96.42,0,0,1-7.73-10.3c-.9-1.41-1.77-2.83-2.59-4.27C30.07,26.22,29,25,28,23.76c-1.6-2-3.1-3.93-4.6-5.91C19.13,12.23,15.05,6.66,9.47,2.27Q4.75,1.57,0,1V0H13.06c7.21,1.1,14.39,2.47,21.48,4.15A79.37,79.37,0,0,1,61.71,2.59c.42.14.82.29,1.23.46q2.1.8,4.2,1.68a156.72,156.72,0,0,0-30.63-.09c3.4.84,6.79,1.75,10.15,2.76,15.8,4.72,30.44,12.43,46.11,17.44,2.8.9,5.63,1.69,8.48,2.43A90.47,90.47,0,0,1,127,23.94c1.76.47,3.5,1,5.19,1.62a141.18,141.18,0,0,0-29.39,2.1c11.32,2.91,22.77,5.27,33.13,11,12.68,7,23.84,17.44,33.62,28.06C170,67.29,169.18,68,168.65,67.5Z" style="fill:#263238"></path></g><g id="freepik--Drop--inject-406"><path d="M500,0V70.42a29.75,29.75,0,0,1-5.82,8.74l-.59.56a16.17,16.17,0,0,1-2.73,2.06c-4.13,2.51-8.78,3-13.48,4-1,.22-2,.47-3,.77-.78.23-1.57.5-2.34.81-9,3.57-11.38,14-13.41,22.46-1.77,7.41-3.95,14.56-9.4,20.15-5.17,5.32-11.78,9.56-18.95,11l-2.34.5c-.31.07-.63.13-.94.21-4.28,1-8.22,2.08-11.82,3.26l-2.64.9c-22.47,8-32,19-32.2,19,3.93-17.21,8.14-34.36,12.34-51.51,1.68-6.92,2.82-14.46,6-20.92.13-.28.27-.55.41-.82.42-.8.87-1.55,1.35-2.29a33.84,33.84,0,0,1,3.26-4.19c1.2-1.36,2.49-2.63,3.82-3.87,2-1.87,4.08-3.66,6.09-5.47.68-.62,1.36-1.23,2-1.86,12-10.94,23.64-22.36,33.69-35.13.67-.86,1.35-1.71,2-2.53q1.44-1.77,2.92-3.46c.28-.33.57-.65.87-1,.59-.68,1.19-1.33,1.79-2a115.9,115.9,0,0,1,26.4-21.42C486.5,6.52,489.75,4.74,493,3c2-1,4-2,6-3Z" style="fill:#455a64"></path><path d="M500,4.47V9.91c-2.87,8-3.43,16.35-5.15,24.81-.33,1.58-.71,3.15-1.12,4.72A95.22,95.22,0,0,1,489,65.88a.37.37,0,0,1-.71-.18,224.07,224.07,0,0,0,4.21-22.11,88.77,88.77,0,0,1-9.69,20.89A.51.51,0,0,1,482,64,106.29,106.29,0,0,0,493.82,30.6c1.19-7.08,1.67-14.94,4.7-21.58-7,5.32-13.9,10.89-20.43,16.88A233,233,0,0,0,461.6,43c-4.08,10.89-7,22.08-10.31,33.26-3.44,11.72-7.64,23.34-15.21,33.08-.22.28-.73-.07-.52-.37,13-19.12,14.82-42.47,23.59-63.2-4.43,5-8.82,10.12-13.38,15.07-10,10.81-22.22,19.39-31.84,30.48-1.89,10-1,20.74-4.92,30.28-.13.35-.71.13-.6-.23,2.71-9.53,2.49-19.48,4.67-29.06l-.37.42C401.46,106.26,396.89,123,391,139.25c-.25.68-1.31.46-1.11-.27,3.66-14,8.64-28.38,16.56-40.53,6.45-9.94,15.47-17.39,24.11-25.26a139.88,139.88,0,0,0-27,11.92c1.2-1.36,2.49-2.63,3.82-3.87a90.74,90.74,0,0,1,24.28-9.1c2.17-2,4.3-4,6.36-6.12,11.49-11.76,20.82-25.44,32.56-37,2.5-2.46,5.07-4.85,7.68-7.19-2.5,1.05-4.93,2.14-7.32,3.27a151.21,151.21,0,0,0-19.7,11.16q1.44-1.77,2.92-3.46c.28-.33.57-.65.87-1A82.68,82.68,0,0,1,472.7,22.7a69.4,69.4,0,0,1,7.16-2.23C486.3,14.81,493.05,9.49,500,4.47Z" style="fill:#263238"></path><path d="M500,0V3c-1,.22-2,.47-3,.76a38.77,38.77,0,0,0-10.44,4.55c-5.66,3.6-9.92,8.86-13.85,14.38-.56.79-1.12,1.59-1.67,2.39-2.16,3.13-4.27,6.28-6.52,9.2A232.55,232.55,0,0,1,442.16,59.4c-6.05,5.86-13,11.74-21.31,13.88l-.94.21a19.42,19.42,0,0,1-4,.43h-.3c-5.56,0-10.45-2.36-15.73-4.15-1.15-.38-2.33-.75-3.54-1.06-.92-.24-1.88-.44-2.85-.6-11.25-1.84-20,7.3-27.16,14.59C360,89.09,353.51,95,344.62,97.35c-8.46,2.24-17.7,2.53-25.83-.35-.89-.32-1.78-.63-2.66-.92l-1.08-.36c-4.91-1.6-9.57-2.88-13.92-3.86l-3.22-.69c-27.54-5.56-43.85-.21-44.06-.26,14.39-15,29-29.81,43.66-44.6,5.9-6,11.62-12.9,18.73-17.52l.91-.58a30.67,30.67,0,0,1,2.76-1.49,40,40,0,0,1,5.83-2.27c2-.64,4.1-1.14,6.2-1.59,3.15-.69,6.34-1.23,9.47-1.84,19.82-3.94,39.61-8.54,58.52-15.75,1.2-.46,2.4-.9,3.59-1.32q2.53-.92,5.05-1.72c.49-.17,1-.32,1.47-.46,1-.33,2-.63,3-.93s2-.57,3-.84Z" style="fill:#37474f"></path><path d="M500,0V2.69c-2.32.1-4.65.21-7,.34-7.17.38-14.34.89-21.49,1.58-9.24,6.53-15.41,15.74-23.11,24.15q-1.92,2.1-4,4.09a112.36,112.36,0,0,1-20.76,23.89c-.41.35-1-.22-.61-.62,6.3-6.38,12.07-12.91,17.64-19.8a104.53,104.53,0,0,1-22.44,15.25.6.6,0,0,1-.6-1A125.37,125.37,0,0,0,449.9,24c5.48-6.44,10.73-14.09,17.82-19-10.35,1.1-20.65,2.59-30.88,4.69a275.56,275.56,0,0,0-27,7.27C399.11,25.51,389.34,35,379.26,44.34c-10.57,9.78-21.86,19-35.41,24.23-.39.16-.69-.51-.3-.69,24.7-11.46,40.71-33.95,62.12-49.59-7.52,2.41-15,4.89-22.65,7.12-16.62,4.89-34.2,6.15-50.64,11.53-8,9-13.57,20.36-23.31,27.63-.35.27-.8-.3-.47-.6,8.5-8,14.32-18.18,22.32-26.55l-.62.21c-19.59,6.88-34.35,21-50.1,33.92-.66.53-1.6-.34-1-1,12.15-11.89,25.92-23.45,41.29-30.94,12.54-6.13,26.16-8.21,39.66-10.93a165.85,165.85,0,0,0-34.45-4.28c2-.64,4.1-1.14,6.2-1.59A106.65,106.65,0,0,1,362,28.37c3.39-.7,6.77-1.46,10.13-2.34,18.74-4.92,36.45-13.1,55.33-17.68,4-1,8.06-1.84,12.11-2.62A184.67,184.67,0,0,0,403.52,4q2.53-.92,5.05-1.72c.49-.17,1-.32,1.47-.46a93.49,93.49,0,0,1,31.88,3.51A340.7,340.7,0,0,1,482.22.54Q487.91.19,493.58,0Z" style="fill:#263238"></path><path d="M304.12,92.57c-.54,2.39-6.3-.62-18.94,0s-30.43,3.78-32.37,7.83c-1,2.09-1.21,20.93-1.16,29.4,9.19,45,41.93,70.94,41.93,113,0,28.79-17.35,54.42-43.6,54.42s-43.56-25.63-43.56-54.42c0-41.58,32-68.82,41.6-113,.15-8.39.23-25.07,0-27.15-.52-4.71.06-12.86,4.12-16.13s7.54-3.3,9.48-5,4-4.13,5.63-4.51c2.35-.53-4.91,7.06-1.14,7.73s9.76-2,17.07,0S304.66,90.17,304.12,92.57Z" style="fill:#6EF4FE;opacity:0.6000000000000001"></path><path d="M250,126c.75,26.81-8.57,52.54-18.72,76.7-8.41,20.1-14.93,55.24-2.51,74.4l-.4.47c-2.79-2-20.73-17.18-11.12-55.76,4.86-19.51,18.8-38.41,24.95-57.33A134.25,134.25,0,0,0,250,126Z" style="fill:#fff;opacity:0.6000000000000001"></path><path d="M261.86,167c3.82,17.79,9.53,29.25,16.13,47.61,5.47,15.28,8.3,43.13-1,57.17l.28.37c2-1.4,13.48-12.06,9.34-41.5-1.55-11.08-7.52-23.23-16-40.1C265.31,180.07,261.86,167,261.86,167Z" style="fill:#6EF4FE"></path><path d="M250,95.08c.13-3.28,1.23-7,4.46-8.58,3-1.32,5.79-2.27,8.78-3.58a15.19,15.19,0,0,1-3.64,3.19c-2.47,1.61-5.66,2.23-7.27,4.91-.8,1.19-1.38,2.72-2.33,4.06Z" style="fill:#fff;opacity:0.6000000000000001"></path></g></svg>